<svg width="12" height="12" viewBox="439.79 2.95 11.14 11.13" fill="none" xmlns="http://www.w3.org/2000/svg" aria-hidden="true">
<path d="M440.343 3.13602C440.269 3.13745 440.196 3.15341 440.129 3.18299C440.061 3.21257 440 3.2552 439.949 3.30844C439.845 3.41595 439.789 3.56014 439.792 3.70931C439.794 3.85847 439.856 4.00037 439.964 4.10381C440.071 4.20724 440.216 4.26373 440.365 4.26085L448.975 4.0938L439.029 14.0391C438.924 14.1446 438.865 14.2876 438.865 14.4368C438.865 14.586 438.924 14.7291 439.029 14.8346C439.135 14.9401 439.278 14.9993 439.427 14.9993C439.576 14.9993 439.719 14.9401 439.825 14.8346L449.769 4.89035L449.602 13.4987C449.6 13.5725 449.613 13.6459 449.64 13.7147C449.667 13.7835 449.707 13.8463 449.759 13.8995C449.81 13.9528 449.871 13.9954 449.939 14.025C450.006 14.0546 450.079 14.0705 450.153 14.072C450.227 14.0734 450.3 14.0603 450.369 14.0333C450.438 14.0064 450.501 13.9661 450.554 13.9149C450.607 13.8637 450.65 13.8025 450.679 13.7348C450.709 13.6671 450.725 13.5943 450.726 13.5204L450.917 3.7109C450.919 3.61001 450.9 3.50977 450.863 3.41618C450.825 3.32259 450.769 3.23758 450.697 3.16622C450.626 3.09487 450.541 3.03865 450.447 3.00093C450.354 2.96321 450.253 2.94476 450.153 2.94669L440.343 3.13602Z" fill="currentColor"/>
</svg>
